%TF.GenerationSoftware,KiCad,Pcbnew,5.1.7-a382d34a8~88~ubuntu18.04.1*%
%TF.CreationDate,2022-11-10T08:04:54-05:00*%
%TF.ProjectId,project-mute-button,70726f6a-6563-4742-9d6d-7574652d6275,rev?*%
%TF.SameCoordinates,Original*%
%TF.FileFunction,Copper,L1,Top*%
%TF.FilePolarity,Positive*%
%FSLAX46Y46*%
G04 Gerber Fmt 4.6, Leading zero omitted, Abs format (unit mm)*
G04 Created by KiCad (PCBNEW 5.1.7-a382d34a8~88~ubuntu18.04.1) date 2022-11-10 08:04:54*
%MOMM*%
%LPD*%
G01*
G04 APERTURE LIST*
%TA.AperFunction,SMDPad,CuDef*%
%ADD10R,0.700000X0.450000*%
%TD*%
%TA.AperFunction,SMDPad,CuDef*%
%ADD11R,1.400000X5.100000*%
%TD*%
%TA.AperFunction,SMDPad,CuDef*%
%ADD12R,1.900000X1.000000*%
%TD*%
%TA.AperFunction,ViaPad*%
%ADD13C,0.800000*%
%TD*%
%TA.AperFunction,Conductor*%
%ADD14C,0.250000*%
%TD*%
%TA.AperFunction,Conductor*%
%ADD15C,1.000000*%
%TD*%
%TA.AperFunction,Conductor*%
%ADD16C,0.500000*%
%TD*%
G04 APERTURE END LIST*
%TO.P,R5,2*%
%TO.N,Net-(D2-Pad2)*%
%TA.AperFunction,SMDPad,CuDef*%
G36*
G01*
X93775000Y-73625000D02*
X93775000Y-73075000D01*
G75*
G02*
X93975000Y-72875000I200000J0D01*
G01*
X94375000Y-72875000D01*
G75*
G02*
X94575000Y-73075000I0J-200000D01*
G01*
X94575000Y-73625000D01*
G75*
G02*
X94375000Y-73825000I-200000J0D01*
G01*
X93975000Y-73825000D01*
G75*
G02*
X93775000Y-73625000I0J200000D01*
G01*
G37*
%TD.AperFunction*%
%TO.P,R5,1*%
%TO.N,+5V*%
%TA.AperFunction,SMDPad,CuDef*%
G36*
G01*
X92125000Y-73625000D02*
X92125000Y-73075000D01*
G75*
G02*
X92325000Y-72875000I200000J0D01*
G01*
X92725000Y-72875000D01*
G75*
G02*
X92925000Y-73075000I0J-200000D01*
G01*
X92925000Y-73625000D01*
G75*
G02*
X92725000Y-73825000I-200000J0D01*
G01*
X92325000Y-73825000D01*
G75*
G02*
X92125000Y-73625000I0J200000D01*
G01*
G37*
%TD.AperFunction*%
%TD*%
%TO.P,R4,2*%
%TO.N,GND*%
%TA.AperFunction,SMDPad,CuDef*%
G36*
G01*
X67775000Y-68125000D02*
X67775000Y-67575000D01*
G75*
G02*
X67975000Y-67375000I200000J0D01*
G01*
X68375000Y-67375000D01*
G75*
G02*
X68575000Y-67575000I0J-200000D01*
G01*
X68575000Y-68125000D01*
G75*
G02*
X68375000Y-68325000I-200000J0D01*
G01*
X67975000Y-68325000D01*
G75*
G02*
X67775000Y-68125000I0J200000D01*
G01*
G37*
%TD.AperFunction*%
%TO.P,R4,1*%
%TO.N,/G2*%
%TA.AperFunction,SMDPad,CuDef*%
G36*
G01*
X66125000Y-68125000D02*
X66125000Y-67575000D01*
G75*
G02*
X66325000Y-67375000I200000J0D01*
G01*
X66725000Y-67375000D01*
G75*
G02*
X66925000Y-67575000I0J-200000D01*
G01*
X66925000Y-68125000D01*
G75*
G02*
X66725000Y-68325000I-200000J0D01*
G01*
X66325000Y-68325000D01*
G75*
G02*
X66125000Y-68125000I0J200000D01*
G01*
G37*
%TD.AperFunction*%
%TD*%
%TO.P,R3,2*%
%TO.N,Net-(D1-Pad2)*%
%TA.AperFunction,SMDPad,CuDef*%
G36*
G01*
X40925000Y-73075000D02*
X40925000Y-73625000D01*
G75*
G02*
X40725000Y-73825000I-200000J0D01*
G01*
X40325000Y-73825000D01*
G75*
G02*
X40125000Y-73625000I0J200000D01*
G01*
X40125000Y-73075000D01*
G75*
G02*
X40325000Y-72875000I200000J0D01*
G01*
X40725000Y-72875000D01*
G75*
G02*
X40925000Y-73075000I0J-200000D01*
G01*
G37*
%TD.AperFunction*%
%TO.P,R3,1*%
%TO.N,+5V*%
%TA.AperFunction,SMDPad,CuDef*%
G36*
G01*
X42575000Y-73075000D02*
X42575000Y-73625000D01*
G75*
G02*
X42375000Y-73825000I-200000J0D01*
G01*
X41975000Y-73825000D01*
G75*
G02*
X41775000Y-73625000I0J200000D01*
G01*
X41775000Y-73075000D01*
G75*
G02*
X41975000Y-72875000I200000J0D01*
G01*
X42375000Y-72875000D01*
G75*
G02*
X42575000Y-73075000I0J-200000D01*
G01*
G37*
%TD.AperFunction*%
%TD*%
D10*
%TO.P,Q1,3*%
%TO.N,Net-(D1-Pad1)*%
X68350000Y-65350000D03*
%TO.P,Q1,2*%
%TO.N,GND*%
X66350000Y-66000000D03*
%TO.P,Q1,1*%
%TO.N,/G2*%
X66350000Y-64700000D03*
%TD*%
%TO.P,D2,2*%
%TO.N,Net-(D2-Pad2)*%
%TA.AperFunction,SMDPad,CuDef*%
G36*
G01*
X97093750Y-69700000D02*
X97606250Y-69700000D01*
G75*
G02*
X97825000Y-69918750I0J-218750D01*
G01*
X97825000Y-70356250D01*
G75*
G02*
X97606250Y-70575000I-218750J0D01*
G01*
X97093750Y-70575000D01*
G75*
G02*
X96875000Y-70356250I0J218750D01*
G01*
X96875000Y-69918750D01*
G75*
G02*
X97093750Y-69700000I218750J0D01*
G01*
G37*
%TD.AperFunction*%
%TO.P,D2,1*%
%TO.N,Net-(D1-Pad1)*%
%TA.AperFunction,SMDPad,CuDef*%
G36*
G01*
X97093750Y-68125000D02*
X97606250Y-68125000D01*
G75*
G02*
X97825000Y-68343750I0J-218750D01*
G01*
X97825000Y-68781250D01*
G75*
G02*
X97606250Y-69000000I-218750J0D01*
G01*
X97093750Y-69000000D01*
G75*
G02*
X96875000Y-68781250I0J218750D01*
G01*
X96875000Y-68343750D01*
G75*
G02*
X97093750Y-68125000I218750J0D01*
G01*
G37*
%TD.AperFunction*%
%TD*%
%TO.P,D1,2*%
%TO.N,Net-(D1-Pad2)*%
%TA.AperFunction,SMDPad,CuDef*%
G36*
G01*
X37093750Y-69700000D02*
X37606250Y-69700000D01*
G75*
G02*
X37825000Y-69918750I0J-218750D01*
G01*
X37825000Y-70356250D01*
G75*
G02*
X37606250Y-70575000I-218750J0D01*
G01*
X37093750Y-70575000D01*
G75*
G02*
X36875000Y-70356250I0J218750D01*
G01*
X36875000Y-69918750D01*
G75*
G02*
X37093750Y-69700000I218750J0D01*
G01*
G37*
%TD.AperFunction*%
%TO.P,D1,1*%
%TO.N,Net-(D1-Pad1)*%
%TA.AperFunction,SMDPad,CuDef*%
G36*
G01*
X37093750Y-68125000D02*
X37606250Y-68125000D01*
G75*
G02*
X37825000Y-68343750I0J-218750D01*
G01*
X37825000Y-68781250D01*
G75*
G02*
X37606250Y-69000000I-218750J0D01*
G01*
X37093750Y-69000000D01*
G75*
G02*
X36875000Y-68781250I0J218750D01*
G01*
X36875000Y-68343750D01*
G75*
G02*
X37093750Y-68125000I218750J0D01*
G01*
G37*
%TD.AperFunction*%
%TD*%
%TO.P,R2,2*%
%TO.N,/G1*%
%TA.AperFunction,SMDPad,CuDef*%
G36*
G01*
X61075000Y-70775000D02*
X61625000Y-70775000D01*
G75*
G02*
X61825000Y-70975000I0J-200000D01*
G01*
X61825000Y-71375000D01*
G75*
G02*
X61625000Y-71575000I-200000J0D01*
G01*
X61075000Y-71575000D01*
G75*
G02*
X60875000Y-71375000I0J200000D01*
G01*
X60875000Y-70975000D01*
G75*
G02*
X61075000Y-70775000I200000J0D01*
G01*
G37*
%TD.AperFunction*%
%TO.P,R2,1*%
%TO.N,+3V3*%
%TA.AperFunction,SMDPad,CuDef*%
G36*
G01*
X61075000Y-69125000D02*
X61625000Y-69125000D01*
G75*
G02*
X61825000Y-69325000I0J-200000D01*
G01*
X61825000Y-69725000D01*
G75*
G02*
X61625000Y-69925000I-200000J0D01*
G01*
X61075000Y-69925000D01*
G75*
G02*
X60875000Y-69725000I0J200000D01*
G01*
X60875000Y-69325000D01*
G75*
G02*
X61075000Y-69125000I200000J0D01*
G01*
G37*
%TD.AperFunction*%
%TD*%
%TO.P,R1,2*%
%TO.N,/G0*%
%TA.AperFunction,SMDPad,CuDef*%
G36*
G01*
X63075000Y-70775000D02*
X63625000Y-70775000D01*
G75*
G02*
X63825000Y-70975000I0J-200000D01*
G01*
X63825000Y-71375000D01*
G75*
G02*
X63625000Y-71575000I-200000J0D01*
G01*
X63075000Y-71575000D01*
G75*
G02*
X62875000Y-71375000I0J200000D01*
G01*
X62875000Y-70975000D01*
G75*
G02*
X63075000Y-70775000I200000J0D01*
G01*
G37*
%TD.AperFunction*%
%TO.P,R1,1*%
%TO.N,+3V3*%
%TA.AperFunction,SMDPad,CuDef*%
G36*
G01*
X63075000Y-69125000D02*
X63625000Y-69125000D01*
G75*
G02*
X63825000Y-69325000I0J-200000D01*
G01*
X63825000Y-69725000D01*
G75*
G02*
X63625000Y-69925000I-200000J0D01*
G01*
X63075000Y-69925000D01*
G75*
G02*
X62875000Y-69725000I0J200000D01*
G01*
X62875000Y-69325000D01*
G75*
G02*
X63075000Y-69125000I200000J0D01*
G01*
G37*
%TD.AperFunction*%
%TD*%
D11*
%TO.P,J4,2*%
%TO.N,GND*%
X49600000Y-71300000D03*
%TO.P,J4,1*%
%TO.N,/G1*%
X53100000Y-71300000D03*
%TD*%
%TO.P,J3,2*%
%TO.N,GND*%
X81600000Y-71300000D03*
%TO.P,J3,1*%
%TO.N,/G0*%
X85100000Y-71300000D03*
%TD*%
D12*
%TO.P,J2,5*%
%TO.N,/G1*%
X59350000Y-78190000D03*
%TO.P,J2,3*%
%TO.N,/G3*%
X59350000Y-83270000D03*
%TO.P,J2,1*%
%TO.N,/RX*%
X59350000Y-88350000D03*
%TO.P,J2,6*%
%TO.N,/G0*%
X62650000Y-75650000D03*
%TO.P,J2,4*%
%TO.N,/G2*%
X62650000Y-80730000D03*
%TO.P,J2,2*%
%TO.N,/TX*%
X62650000Y-85810000D03*
%TD*%
%TO.P,J1,5*%
%TO.N,/SCL*%
X72050000Y-78190000D03*
%TO.P,J1,3*%
%TO.N,+3V3*%
X72050000Y-83270000D03*
%TO.P,J1,1*%
%TO.N,+5V*%
X72050000Y-88350000D03*
%TO.P,J1,6*%
%TO.N,/SDA*%
X75350000Y-75650000D03*
%TO.P,J1,4*%
%TO.N,/~R*%
X75350000Y-80730000D03*
%TO.P,J1,2*%
%TO.N,GND*%
X75350000Y-85810000D03*
%TD*%
D13*
%TO.N,GND*%
X73750000Y-85850000D03*
X50150000Y-67950000D03*
X82050000Y-67950000D03*
X69250000Y-67450000D03*
X65250000Y-66050000D03*
%TD*%
D14*
%TO.N,+3V3*%
X61350000Y-69525000D02*
X63350000Y-69525000D01*
X79175000Y-69525000D02*
X81475001Y-67224999D01*
X63350000Y-69525000D02*
X79175000Y-69525000D01*
X85224999Y-67224999D02*
X86550000Y-68550000D01*
X81475001Y-67224999D02*
X85224999Y-67224999D01*
X78130000Y-83270000D02*
X72050000Y-83270000D01*
X86550000Y-68550000D02*
X86550000Y-74850000D01*
X86550000Y-74850000D02*
X78130000Y-83270000D01*
D15*
%TO.N,+5V*%
X70849999Y-87149999D02*
X72050000Y-88350000D01*
X55439997Y-87149999D02*
X70849999Y-87149999D01*
X42175000Y-73885002D02*
X55439997Y-87149999D01*
X42175000Y-73350000D02*
X42175000Y-73885002D01*
X77525000Y-88350000D02*
X72050000Y-88350000D01*
X92525000Y-73350000D02*
X77525000Y-88350000D01*
D16*
%TO.N,GND*%
X75350000Y-85810000D02*
X73790000Y-85810000D01*
X73790000Y-85810000D02*
X73750000Y-85850000D01*
X49600000Y-71300000D02*
X49600000Y-68500000D01*
X49600000Y-68500000D02*
X50150000Y-67950000D01*
X81600000Y-71300000D02*
X81600000Y-68400000D01*
X81600000Y-68400000D02*
X82050000Y-67950000D01*
X68175000Y-67850000D02*
X68850000Y-67850000D01*
X68850000Y-67850000D02*
X69250000Y-67450000D01*
X66350000Y-66000000D02*
X65300000Y-66000000D01*
X65300000Y-66000000D02*
X65250000Y-66050000D01*
D14*
%TO.N,/G1*%
X59350000Y-73175000D02*
X61350000Y-71175000D01*
X59350000Y-78190000D02*
X59350000Y-73175000D01*
X57475000Y-71300000D02*
X59350000Y-73175000D01*
X53100000Y-71300000D02*
X57475000Y-71300000D01*
%TO.N,/G0*%
X63350000Y-74950000D02*
X62650000Y-75650000D01*
X63350000Y-71175000D02*
X63350000Y-74950000D01*
X66725000Y-74550000D02*
X63350000Y-71175000D01*
X84650000Y-74550000D02*
X66725000Y-74550000D01*
X85100000Y-71300000D02*
X85100000Y-74100000D01*
X85100000Y-74100000D02*
X84650000Y-74550000D01*
%TO.N,/G2*%
X67250000Y-67125000D02*
X66525000Y-67850000D01*
X66350000Y-64700000D02*
X67250000Y-65600000D01*
X67250000Y-65600000D02*
X67250000Y-67125000D01*
X61150000Y-79230000D02*
X62650000Y-80730000D01*
X61150000Y-74550000D02*
X61150000Y-79230000D01*
X62250000Y-73450000D02*
X61150000Y-74550000D01*
X62250000Y-70750000D02*
X62250000Y-73450000D01*
X61550000Y-67850000D02*
X60450000Y-68950000D01*
X66525000Y-67850000D02*
X61550000Y-67850000D01*
X60450000Y-68950000D02*
X60450000Y-70050000D01*
X60450000Y-70050000D02*
X60750000Y-70350000D01*
X60750000Y-70350000D02*
X61850000Y-70350000D01*
X61850000Y-70350000D02*
X62250000Y-70750000D01*
D15*
%TO.N,Net-(D1-Pad2)*%
X37350000Y-70175000D02*
X40525000Y-73350000D01*
X37350000Y-70137500D02*
X37350000Y-70175000D01*
%TO.N,Net-(D1-Pad1)*%
X68350000Y-64125000D02*
X68350000Y-65350000D01*
X37350000Y-68562500D02*
X42762500Y-63150000D01*
X67375000Y-63150000D02*
X68350000Y-64125000D01*
X42762500Y-63150000D02*
X67375000Y-63150000D01*
X89425000Y-64125000D02*
X68350000Y-64125000D01*
X95710328Y-65650000D02*
X90950000Y-65650000D01*
X90950000Y-65650000D02*
X89425000Y-64125000D01*
X97350000Y-68562500D02*
X97350000Y-67289672D01*
X97350000Y-67289672D02*
X95710328Y-65650000D01*
%TO.N,Net-(D2-Pad2)*%
X94175000Y-73312500D02*
X97350000Y-70137500D01*
X94175000Y-73350000D02*
X94175000Y-73312500D01*
%TD*%
M02*
