%TF.GenerationSoftware,KiCad,Pcbnew,5.1.7-a382d34a8~88~ubuntu18.04.1*%
%TF.CreationDate,2022-11-07T19:22:55-05:00*%
%TF.ProjectId,project-mute-button,70726f6a-6563-4742-9d6d-7574652d6275,rev?*%
%TF.SameCoordinates,Original*%
%TF.FileFunction,Legend,Top*%
%TF.FilePolarity,Positive*%
%FSLAX46Y46*%
G04 Gerber Fmt 4.6, Leading zero omitted, Abs format (unit mm)*
G04 Created by KiCad (PCBNEW 5.1.7-a382d34a8~88~ubuntu18.04.1) date 2022-11-07 19:22:55*
%MOMM*%
%LPD*%
G01*
G04 APERTURE LIST*
%ADD10C,0.150000*%
%ADD11C,0.120000*%
G04 APERTURE END LIST*
D10*
X79318928Y-77028571D02*
X78985595Y-77028571D01*
X78985595Y-77552380D02*
X78985595Y-76552380D01*
X79461785Y-76552380D01*
X79842738Y-77552380D02*
X79842738Y-76885714D01*
X79842738Y-77076190D02*
X79890357Y-76980952D01*
X79937976Y-76933333D01*
X80033214Y-76885714D01*
X80128452Y-76885714D01*
X80890357Y-77552380D02*
X80890357Y-77028571D01*
X80842738Y-76933333D01*
X80747500Y-76885714D01*
X80557023Y-76885714D01*
X80461785Y-76933333D01*
X80890357Y-77504761D02*
X80795119Y-77552380D01*
X80557023Y-77552380D01*
X80461785Y-77504761D01*
X80414166Y-77409523D01*
X80414166Y-77314285D01*
X80461785Y-77219047D01*
X80557023Y-77171428D01*
X80795119Y-77171428D01*
X80890357Y-77123809D01*
X81366547Y-76885714D02*
X81366547Y-77552380D01*
X81366547Y-76980952D02*
X81414166Y-76933333D01*
X81509404Y-76885714D01*
X81652261Y-76885714D01*
X81747500Y-76933333D01*
X81795119Y-77028571D01*
X81795119Y-77552380D01*
X82699880Y-77504761D02*
X82604642Y-77552380D01*
X82414166Y-77552380D01*
X82318928Y-77504761D01*
X82271309Y-77457142D01*
X82223690Y-77361904D01*
X82223690Y-77076190D01*
X82271309Y-76980952D01*
X82318928Y-76933333D01*
X82414166Y-76885714D01*
X82604642Y-76885714D01*
X82699880Y-76933333D01*
X82509404Y-77600000D02*
X82604642Y-77647619D01*
X82652261Y-77742857D01*
X82604642Y-77838095D01*
X82509404Y-77885714D01*
X82366547Y-77885714D01*
X83271309Y-77552380D02*
X83176071Y-77504761D01*
X83128452Y-77457142D01*
X83080833Y-77361904D01*
X83080833Y-77076190D01*
X83128452Y-76980952D01*
X83176071Y-76933333D01*
X83271309Y-76885714D01*
X83414166Y-76885714D01*
X83509404Y-76933333D01*
X83557023Y-76980952D01*
X83604642Y-77076190D01*
X83604642Y-77361904D01*
X83557023Y-77457142D01*
X83509404Y-77504761D01*
X83414166Y-77552380D01*
X83271309Y-77552380D01*
X84033214Y-77552380D02*
X84033214Y-76885714D01*
X84033214Y-76552380D02*
X83985595Y-76600000D01*
X84033214Y-76647619D01*
X84080833Y-76600000D01*
X84033214Y-76552380D01*
X84033214Y-76647619D01*
X84461785Y-77504761D02*
X84557023Y-77552380D01*
X84747500Y-77552380D01*
X84842738Y-77504761D01*
X84890357Y-77409523D01*
X84890357Y-77361904D01*
X84842738Y-77266666D01*
X84747500Y-77219047D01*
X84604642Y-77219047D01*
X84509404Y-77171428D01*
X84461785Y-77076190D01*
X84461785Y-77028571D01*
X84509404Y-76933333D01*
X84604642Y-76885714D01*
X84747500Y-76885714D01*
X84842738Y-76933333D01*
X86604642Y-76600000D02*
X86509404Y-76552380D01*
X86366547Y-76552380D01*
X86223690Y-76600000D01*
X86128452Y-76695238D01*
X86080833Y-76790476D01*
X86033214Y-76980952D01*
X86033214Y-77123809D01*
X86080833Y-77314285D01*
X86128452Y-77409523D01*
X86223690Y-77504761D01*
X86366547Y-77552380D01*
X86461785Y-77552380D01*
X86604642Y-77504761D01*
X86652261Y-77457142D01*
X86652261Y-77123809D01*
X86461785Y-77123809D01*
X87461785Y-77504761D02*
X87366547Y-77552380D01*
X87176071Y-77552380D01*
X87080833Y-77504761D01*
X87033214Y-77409523D01*
X87033214Y-77028571D01*
X87080833Y-76933333D01*
X87176071Y-76885714D01*
X87366547Y-76885714D01*
X87461785Y-76933333D01*
X87509404Y-77028571D01*
X87509404Y-77123809D01*
X87033214Y-77219047D01*
X87937976Y-77552380D02*
X87937976Y-76885714D01*
X87937976Y-77076190D02*
X87985595Y-76980952D01*
X88033214Y-76933333D01*
X88128452Y-76885714D01*
X88223690Y-76885714D01*
X88461785Y-76885714D02*
X88699880Y-77552380D01*
X88937976Y-76885714D01*
X89747500Y-77552380D02*
X89747500Y-77028571D01*
X89699880Y-76933333D01*
X89604642Y-76885714D01*
X89414166Y-76885714D01*
X89318928Y-76933333D01*
X89747500Y-77504761D02*
X89652261Y-77552380D01*
X89414166Y-77552380D01*
X89318928Y-77504761D01*
X89271309Y-77409523D01*
X89271309Y-77314285D01*
X89318928Y-77219047D01*
X89414166Y-77171428D01*
X89652261Y-77171428D01*
X89747500Y-77123809D01*
X90223690Y-77552380D02*
X90223690Y-76885714D01*
X90223690Y-76552380D02*
X90176071Y-76600000D01*
X90223690Y-76647619D01*
X90271309Y-76600000D01*
X90223690Y-76552380D01*
X90223690Y-76647619D01*
X90652261Y-77504761D02*
X90747500Y-77552380D01*
X90937976Y-77552380D01*
X91033214Y-77504761D01*
X91080833Y-77409523D01*
X91080833Y-77361904D01*
X91033214Y-77266666D01*
X90937976Y-77219047D01*
X90795119Y-77219047D01*
X90699880Y-77171428D01*
X90652261Y-77076190D01*
X90652261Y-77028571D01*
X90699880Y-76933333D01*
X90795119Y-76885714D01*
X90937976Y-76885714D01*
X91033214Y-76933333D01*
X79414166Y-78202380D02*
X79223690Y-78202380D01*
X79128452Y-78250000D01*
X79080833Y-78297619D01*
X78985595Y-78440476D01*
X78937976Y-78630952D01*
X78937976Y-79011904D01*
X78985595Y-79107142D01*
X79033214Y-79154761D01*
X79128452Y-79202380D01*
X79318928Y-79202380D01*
X79414166Y-79154761D01*
X79461785Y-79107142D01*
X79509404Y-79011904D01*
X79509404Y-78773809D01*
X79461785Y-78678571D01*
X79414166Y-78630952D01*
X79318928Y-78583333D01*
X79128452Y-78583333D01*
X79033214Y-78630952D01*
X78985595Y-78678571D01*
X78937976Y-78773809D01*
X80699880Y-78535714D02*
X80699880Y-79202380D01*
X80699880Y-78630952D02*
X80747500Y-78583333D01*
X80842738Y-78535714D01*
X80985595Y-78535714D01*
X81080833Y-78583333D01*
X81128452Y-78678571D01*
X81128452Y-79202380D01*
X81747500Y-79202380D02*
X81652261Y-79154761D01*
X81604642Y-79107142D01*
X81557023Y-79011904D01*
X81557023Y-78726190D01*
X81604642Y-78630952D01*
X81652261Y-78583333D01*
X81747500Y-78535714D01*
X81890357Y-78535714D01*
X81985595Y-78583333D01*
X82033214Y-78630952D01*
X82080833Y-78726190D01*
X82080833Y-79011904D01*
X82033214Y-79107142D01*
X81985595Y-79154761D01*
X81890357Y-79202380D01*
X81747500Y-79202380D01*
X82414166Y-78535714D02*
X82652261Y-79202380D01*
X82890357Y-78535714D01*
X83652261Y-79154761D02*
X83557023Y-79202380D01*
X83366547Y-79202380D01*
X83271309Y-79154761D01*
X83223690Y-79059523D01*
X83223690Y-78678571D01*
X83271309Y-78583333D01*
X83366547Y-78535714D01*
X83557023Y-78535714D01*
X83652261Y-78583333D01*
X83699880Y-78678571D01*
X83699880Y-78773809D01*
X83223690Y-78869047D01*
X84128452Y-79202380D02*
X84128452Y-78535714D01*
X84128452Y-78630952D02*
X84176071Y-78583333D01*
X84271309Y-78535714D01*
X84414166Y-78535714D01*
X84509404Y-78583333D01*
X84557023Y-78678571D01*
X84557023Y-79202380D01*
X84557023Y-78678571D02*
X84604642Y-78583333D01*
X84699880Y-78535714D01*
X84842738Y-78535714D01*
X84937976Y-78583333D01*
X84985595Y-78678571D01*
X84985595Y-79202380D01*
X85461785Y-79202380D02*
X85461785Y-78202380D01*
X85461785Y-78583333D02*
X85557023Y-78535714D01*
X85747500Y-78535714D01*
X85842738Y-78583333D01*
X85890357Y-78630952D01*
X85937976Y-78726190D01*
X85937976Y-79011904D01*
X85890357Y-79107142D01*
X85842738Y-79154761D01*
X85747500Y-79202380D01*
X85557023Y-79202380D01*
X85461785Y-79154761D01*
X86366547Y-79202380D02*
X86366547Y-78535714D01*
X86366547Y-78726190D02*
X86414166Y-78630952D01*
X86461785Y-78583333D01*
X86557023Y-78535714D01*
X86652261Y-78535714D01*
X87366547Y-79154761D02*
X87271309Y-79202380D01*
X87080833Y-79202380D01*
X86985595Y-79154761D01*
X86937976Y-79059523D01*
X86937976Y-78678571D01*
X86985595Y-78583333D01*
X87080833Y-78535714D01*
X87271309Y-78535714D01*
X87366547Y-78583333D01*
X87414166Y-78678571D01*
X87414166Y-78773809D01*
X86937976Y-78869047D01*
X88557023Y-78297619D02*
X88604642Y-78250000D01*
X88699880Y-78202380D01*
X88937976Y-78202380D01*
X89033214Y-78250000D01*
X89080833Y-78297619D01*
X89128452Y-78392857D01*
X89128452Y-78488095D01*
X89080833Y-78630952D01*
X88509404Y-79202380D01*
X89128452Y-79202380D01*
X89747500Y-78202380D02*
X89842738Y-78202380D01*
X89937976Y-78250000D01*
X89985595Y-78297619D01*
X90033214Y-78392857D01*
X90080833Y-78583333D01*
X90080833Y-78821428D01*
X90033214Y-79011904D01*
X89985595Y-79107142D01*
X89937976Y-79154761D01*
X89842738Y-79202380D01*
X89747500Y-79202380D01*
X89652261Y-79154761D01*
X89604642Y-79107142D01*
X89557023Y-79011904D01*
X89509404Y-78821428D01*
X89509404Y-78583333D01*
X89557023Y-78392857D01*
X89604642Y-78297619D01*
X89652261Y-78250000D01*
X89747500Y-78202380D01*
X90461785Y-78297619D02*
X90509404Y-78250000D01*
X90604642Y-78202380D01*
X90842738Y-78202380D01*
X90937976Y-78250000D01*
X90985595Y-78297619D01*
X91033214Y-78392857D01*
X91033214Y-78488095D01*
X90985595Y-78630952D01*
X90414166Y-79202380D01*
X91033214Y-79202380D01*
X91414166Y-78297619D02*
X91461785Y-78250000D01*
X91557023Y-78202380D01*
X91795119Y-78202380D01*
X91890357Y-78250000D01*
X91937976Y-78297619D01*
X91985595Y-78392857D01*
X91985595Y-78488095D01*
X91937976Y-78630952D01*
X91366547Y-79202380D01*
X91985595Y-79202380D01*
X78890357Y-80185714D02*
X79128452Y-80852380D01*
X79366547Y-80185714D01*
X80271309Y-80852380D02*
X79699880Y-80852380D01*
X79985595Y-80852380D02*
X79985595Y-79852380D01*
X79890357Y-79995238D01*
X79795119Y-80090476D01*
X79699880Y-80138095D01*
X80699880Y-80757142D02*
X80747500Y-80804761D01*
X80699880Y-80852380D01*
X80652261Y-80804761D01*
X80699880Y-80757142D01*
X80699880Y-80852380D01*
X81366547Y-79852380D02*
X81461785Y-79852380D01*
X81557023Y-79900000D01*
X81604642Y-79947619D01*
X81652261Y-80042857D01*
X81699880Y-80233333D01*
X81699880Y-80471428D01*
X81652261Y-80661904D01*
X81604642Y-80757142D01*
X81557023Y-80804761D01*
X81461785Y-80852380D01*
X81366547Y-80852380D01*
X81271309Y-80804761D01*
X81223690Y-80757142D01*
X81176071Y-80661904D01*
X81128452Y-80471428D01*
X81128452Y-80233333D01*
X81176071Y-80042857D01*
X81223690Y-79947619D01*
X81271309Y-79900000D01*
X81366547Y-79852380D01*
X82128452Y-80757142D02*
X82176071Y-80804761D01*
X82128452Y-80852380D01*
X82080833Y-80804761D01*
X82128452Y-80757142D01*
X82128452Y-80852380D01*
X82795119Y-79852380D02*
X82890357Y-79852380D01*
X82985595Y-79900000D01*
X83033214Y-79947619D01*
X83080833Y-80042857D01*
X83128452Y-80233333D01*
X83128452Y-80471428D01*
X83080833Y-80661904D01*
X83033214Y-80757142D01*
X82985595Y-80804761D01*
X82890357Y-80852380D01*
X82795119Y-80852380D01*
X82699880Y-80804761D01*
X82652261Y-80757142D01*
X82604642Y-80661904D01*
X82557023Y-80471428D01*
X82557023Y-80233333D01*
X82604642Y-80042857D01*
X82652261Y-79947619D01*
X82699880Y-79900000D01*
X82795119Y-79852380D01*
D11*
%TO.C,R5*%
X93112742Y-73872500D02*
X93587258Y-73872500D01*
X93112742Y-72827500D02*
X93587258Y-72827500D01*
%TO.C,R4*%
X67112742Y-68372500D02*
X67587258Y-68372500D01*
X67112742Y-67327500D02*
X67587258Y-67327500D01*
%TO.C,R3*%
X41587258Y-72827500D02*
X41112742Y-72827500D01*
X41587258Y-73872500D02*
X41112742Y-73872500D01*
%TO.C,Q1*%
X66670000Y-66510000D02*
X68080000Y-66510000D01*
X68080000Y-64190000D02*
X66050000Y-64190000D01*
X68080000Y-64190000D02*
X68080000Y-64850000D01*
X68080000Y-65850000D02*
X68080000Y-66510000D01*
%TO.C,D2*%
X96615000Y-67865000D02*
X96615000Y-70150000D01*
X98085000Y-67865000D02*
X96615000Y-67865000D01*
X98085000Y-70150000D02*
X98085000Y-67865000D01*
%TO.C,D1*%
X36615000Y-67865000D02*
X36615000Y-70150000D01*
X38085000Y-67865000D02*
X36615000Y-67865000D01*
X38085000Y-70150000D02*
X38085000Y-67865000D01*
%TO.C,R2*%
X60827500Y-70112742D02*
X60827500Y-70587258D01*
X61872500Y-70112742D02*
X61872500Y-70587258D01*
%TO.C,R1*%
X62827500Y-70112742D02*
X62827500Y-70587258D01*
X63872500Y-70112742D02*
X63872500Y-70587258D01*
%TO.C,J4*%
X47750000Y-62650000D02*
X51350000Y-62650000D01*
X47750000Y-70050000D02*
X47750000Y-62650000D01*
X54950000Y-70050000D02*
X47750000Y-70050000D01*
X54950000Y-62650000D02*
X54950000Y-70050000D01*
X51350000Y-62650000D02*
X54950000Y-62650000D01*
%TO.C,J3*%
X79750000Y-62650000D02*
X83350000Y-62650000D01*
X79750000Y-70050000D02*
X79750000Y-62650000D01*
X86950000Y-70050000D02*
X79750000Y-70050000D01*
X86950000Y-62650000D02*
X86950000Y-70050000D01*
X83350000Y-62650000D02*
X86950000Y-62650000D01*
%TO.C,J2*%
X59670000Y-89110000D02*
X58460000Y-89110000D01*
X62330000Y-74890000D02*
X62330000Y-74220000D01*
X62330000Y-79970000D02*
X62330000Y-76410000D01*
X62330000Y-85050000D02*
X62330000Y-81490000D01*
X62330000Y-89780000D02*
X62330000Y-86570000D01*
X62330000Y-74220000D02*
X59670000Y-74220000D01*
X59670000Y-77430000D02*
X59670000Y-74220000D01*
X59670000Y-82510000D02*
X59670000Y-78950000D01*
X59670000Y-87590000D02*
X59670000Y-84030000D01*
X59670000Y-89780000D02*
X59670000Y-89110000D01*
X62330000Y-89780000D02*
X59670000Y-89780000D01*
%TO.C,J1*%
X72370000Y-89110000D02*
X71160000Y-89110000D01*
X75030000Y-74890000D02*
X75030000Y-74220000D01*
X75030000Y-79970000D02*
X75030000Y-76410000D01*
X75030000Y-85050000D02*
X75030000Y-81490000D01*
X75030000Y-89780000D02*
X75030000Y-86570000D01*
X75030000Y-74220000D02*
X72370000Y-74220000D01*
X72370000Y-77430000D02*
X72370000Y-74220000D01*
X72370000Y-82510000D02*
X72370000Y-78950000D01*
X72370000Y-87590000D02*
X72370000Y-84030000D01*
X72370000Y-89780000D02*
X72370000Y-89110000D01*
X75030000Y-89780000D02*
X72370000Y-89780000D01*
%TO.C,J4*%
D10*
X46230952Y-60952380D02*
X46802380Y-60952380D01*
X46516666Y-61952380D02*
X46516666Y-60952380D01*
X47278571Y-61952380D02*
X47183333Y-61904761D01*
X47135714Y-61857142D01*
X47088095Y-61761904D01*
X47088095Y-61476190D01*
X47135714Y-61380952D01*
X47183333Y-61333333D01*
X47278571Y-61285714D01*
X47421428Y-61285714D01*
X47516666Y-61333333D01*
X47564285Y-61380952D01*
X47611904Y-61476190D01*
X47611904Y-61761904D01*
X47564285Y-61857142D01*
X47516666Y-61904761D01*
X47421428Y-61952380D01*
X47278571Y-61952380D01*
X48469047Y-61285714D02*
X48469047Y-62095238D01*
X48421428Y-62190476D01*
X48373809Y-62238095D01*
X48278571Y-62285714D01*
X48135714Y-62285714D01*
X48040476Y-62238095D01*
X48469047Y-61904761D02*
X48373809Y-61952380D01*
X48183333Y-61952380D01*
X48088095Y-61904761D01*
X48040476Y-61857142D01*
X47992857Y-61761904D01*
X47992857Y-61476190D01*
X48040476Y-61380952D01*
X48088095Y-61333333D01*
X48183333Y-61285714D01*
X48373809Y-61285714D01*
X48469047Y-61333333D01*
X49373809Y-61285714D02*
X49373809Y-62095238D01*
X49326190Y-62190476D01*
X49278571Y-62238095D01*
X49183333Y-62285714D01*
X49040476Y-62285714D01*
X48945238Y-62238095D01*
X49373809Y-61904761D02*
X49278571Y-61952380D01*
X49088095Y-61952380D01*
X48992857Y-61904761D01*
X48945238Y-61857142D01*
X48897619Y-61761904D01*
X48897619Y-61476190D01*
X48945238Y-61380952D01*
X48992857Y-61333333D01*
X49088095Y-61285714D01*
X49278571Y-61285714D01*
X49373809Y-61333333D01*
X49992857Y-61952380D02*
X49897619Y-61904761D01*
X49850000Y-61809523D01*
X49850000Y-60952380D01*
X50754761Y-61904761D02*
X50659523Y-61952380D01*
X50469047Y-61952380D01*
X50373809Y-61904761D01*
X50326190Y-61809523D01*
X50326190Y-61428571D01*
X50373809Y-61333333D01*
X50469047Y-61285714D01*
X50659523Y-61285714D01*
X50754761Y-61333333D01*
X50802380Y-61428571D01*
X50802380Y-61523809D01*
X50326190Y-61619047D01*
X51945238Y-61904761D02*
X52088095Y-61952380D01*
X52326190Y-61952380D01*
X52421428Y-61904761D01*
X52469047Y-61857142D01*
X52516666Y-61761904D01*
X52516666Y-61666666D01*
X52469047Y-61571428D01*
X52421428Y-61523809D01*
X52326190Y-61476190D01*
X52135714Y-61428571D01*
X52040476Y-61380952D01*
X51992857Y-61333333D01*
X51945238Y-61238095D01*
X51945238Y-61142857D01*
X51992857Y-61047619D01*
X52040476Y-61000000D01*
X52135714Y-60952380D01*
X52373809Y-60952380D01*
X52516666Y-61000000D01*
X52850000Y-61285714D02*
X53040476Y-61952380D01*
X53230952Y-61476190D01*
X53421428Y-61952380D01*
X53611904Y-61285714D01*
X53992857Y-61952380D02*
X53992857Y-61285714D01*
X53992857Y-60952380D02*
X53945238Y-61000000D01*
X53992857Y-61047619D01*
X54040476Y-61000000D01*
X53992857Y-60952380D01*
X53992857Y-61047619D01*
X54326190Y-61285714D02*
X54707142Y-61285714D01*
X54469047Y-60952380D02*
X54469047Y-61809523D01*
X54516666Y-61904761D01*
X54611904Y-61952380D01*
X54707142Y-61952380D01*
X55469047Y-61904761D02*
X55373809Y-61952380D01*
X55183333Y-61952380D01*
X55088095Y-61904761D01*
X55040476Y-61857142D01*
X54992857Y-61761904D01*
X54992857Y-61476190D01*
X55040476Y-61380952D01*
X55088095Y-61333333D01*
X55183333Y-61285714D01*
X55373809Y-61285714D01*
X55469047Y-61333333D01*
X55897619Y-61952380D02*
X55897619Y-60952380D01*
X56326190Y-61952380D02*
X56326190Y-61428571D01*
X56278571Y-61333333D01*
X56183333Y-61285714D01*
X56040476Y-61285714D01*
X55945238Y-61333333D01*
X55897619Y-61380952D01*
%TO.C,J3*%
X81492857Y-61428571D02*
X81635714Y-61476190D01*
X81683333Y-61523809D01*
X81730952Y-61619047D01*
X81730952Y-61761904D01*
X81683333Y-61857142D01*
X81635714Y-61904761D01*
X81540476Y-61952380D01*
X81159523Y-61952380D01*
X81159523Y-60952380D01*
X81492857Y-60952380D01*
X81588095Y-61000000D01*
X81635714Y-61047619D01*
X81683333Y-61142857D01*
X81683333Y-61238095D01*
X81635714Y-61333333D01*
X81588095Y-61380952D01*
X81492857Y-61428571D01*
X81159523Y-61428571D01*
X82588095Y-61285714D02*
X82588095Y-61952380D01*
X82159523Y-61285714D02*
X82159523Y-61809523D01*
X82207142Y-61904761D01*
X82302380Y-61952380D01*
X82445238Y-61952380D01*
X82540476Y-61904761D01*
X82588095Y-61857142D01*
X82921428Y-61285714D02*
X83302380Y-61285714D01*
X83064285Y-60952380D02*
X83064285Y-61809523D01*
X83111904Y-61904761D01*
X83207142Y-61952380D01*
X83302380Y-61952380D01*
X83492857Y-61285714D02*
X83873809Y-61285714D01*
X83635714Y-60952380D02*
X83635714Y-61809523D01*
X83683333Y-61904761D01*
X83778571Y-61952380D01*
X83873809Y-61952380D01*
X84350000Y-61952380D02*
X84254761Y-61904761D01*
X84207142Y-61857142D01*
X84159523Y-61761904D01*
X84159523Y-61476190D01*
X84207142Y-61380952D01*
X84254761Y-61333333D01*
X84350000Y-61285714D01*
X84492857Y-61285714D01*
X84588095Y-61333333D01*
X84635714Y-61380952D01*
X84683333Y-61476190D01*
X84683333Y-61761904D01*
X84635714Y-61857142D01*
X84588095Y-61904761D01*
X84492857Y-61952380D01*
X84350000Y-61952380D01*
X85111904Y-61285714D02*
X85111904Y-61952380D01*
X85111904Y-61380952D02*
X85159523Y-61333333D01*
X85254761Y-61285714D01*
X85397619Y-61285714D01*
X85492857Y-61333333D01*
X85540476Y-61428571D01*
X85540476Y-61952380D01*
%TD*%
M02*
